# WaveFront *.obj file

v -98 -100 98
v -98 -100 -98
v 98 -100 -98
v 98 -100 98
v -100 -98 98
v -100 98 98
v -100 98 -98
v -100 -98 -98
v -98 -98 -100
v -98 98 -100
v 98 98 -100
v 98 -98 -100
v -98 100 -98
v -98 100 98
v 98 100 98
v 98 100 -98
v 100 -98 -98
v 100 98 -98
v 100 98 98
v 100 -98 98
v 98 -98 100
v 98 98 100
v -98 98 100
v -98 -98 100
# 24 vertices

vn 0 0 -1
vn 1 0 0
vn 0 0 1
vn -1 0 0
vn 0 1 0
vn 0 -1 0
vn -0.4765103161335 -0.4765103161335 -0.73883414268494
vn -0.73883414268494 -0.4765103161335 -0.4765103161335
vn -0.73883414268494 0.4765103161335 -0.4765103161335
vn -0.4765103161335 0.4765103161335 -0.73883414268494
vn -0.4765103161335 0.73883414268494 -0.4765103161335
vn 0.4765103161335 0.73883414268494 -0.4765103161335
vn 0.4765103161335 0.4765103161335 -0.73883414268494
vn 0.73883414268494 -0.4765103161335 -0.4765103161335
vn 0.4765103161335 -0.4765103161335 -0.73883414268494
vn 0.73883414268494 0.4765103161335 -0.4765103161335
vn -0.4765103161335 -0.73883414268494 -0.4765103161335
vn 0.4765103161335 -0.73883414268494 -0.4765103161335
vn 0.4765103161335 0.73883414268494 0.4765103161335
vn 0.73883414268494 0.4765103161335 0.4765103161335
vn 0.4765103161335 -0.4765103161335 0.73883414268494
vn 0.73883414268494 -0.4765103161335 0.4765103161335
vn 0.4765103161335 0.4765103161335 0.73883414268494
vn 0.4765103161335 -0.73883414268494 0.4765103161335
vn -0.4765103161335 0.73883414268494 0.4765103161335
vn -0.4765103161335 0.4765103161335 0.73883414268494
vn -0.73883414268494 -0.4765103161335 0.4765103161335
vn -0.4765103161335 -0.4765103161335 0.73883414268494
vn -0.73883414268494 0.4765103161335 0.4765103161335
vn -0.4765103161335 -0.73883414268494 0.4765103161335
vn 0 0 0
# 31 normals

vt 0.00999999977648 0.00999999046326 0
vt 0.00999999977648 0.99000000953674 0
vt 0.99000000953674 0.99000000953674 0
vt 0.99000000953674 0.00999999046326 0
vt -0.00999999046326 0.00999999046326 0
vt -0.00999999046326 0.99000000953674 0
vt 0.00999999977648 1.00999999046326 0
vt 0.99000000953674 1.00999999046326 0
vt 0.00999999046326 1.00999999046326 0
vt 1.00999999046326 0.99000000953674 0
vt 1.00999999046326 0.00999999046326 0
vt 0.00999999046326 1.00999999046326 0
vt 0.99000000953674 1.00999999046326 0
vt 0.99000000953674 -0.00999999046326 0
vt 0.00999999046326 -0.00999999046326 0
vt -0.00999999977648 0.00999999046326 0
vt -0.00999999977648 0.99000000953674 0
# 17 texture coordinates

o Cube
usemtl default
f 9/1/1 10/2/1 11/3/1 12/4/1
f 17/1/2 18/2/2 19/3/2 20/4/2
f 21/1/3 22/2/3 23/3/3 24/4/3
f 5/1/4 6/2/4 7/3/4 8/4/4
f 13/1/5 14/2/5 15/3/5 16/4/5
f 1/1/6 2/2/6 3/3/6 4/4/6
f 9/1/7 8/5/8 7/6/9 10/2/10
f 10/2/10 13/7/11 16/8/12 11/3/13
f 17/1/14 12/5/15 11/6/13 18/2/16
f 2/2/17 9/7/7 12/8/15 3/3/18
f 18/2/16 16/9/12 15/8/19 19/3/20
f 21/1/21 20/5/22 19/6/20 22/2/23
f 3/3/18 17/10/14 20/11/22 4/4/24
f 22/2/23 15/12/19 14/13/25 23/3/26
f 5/1/27 24/5/28 23/6/26 6/2/29
f 4/4/24 21/14/21 24/15/28 1/1/30
f 13/1/11 7/16/9 6/17/29 14/2/25
f 8/4/8 2/14/17 1/15/30 5/1/27
f 1/15/30 24/15/28 5/1/27
f 2/14/17 8/4/8 9/7/7
f 3/3/18 12/8/15 17/10/14
f 4/4/24 20/11/22 21/14/21
f 6/17/29 23/6/26 14/2/25
f 7/16/9 13/1/11 10/2/10
f 11/6/13 16/9/12 18/2/16
f 15/12/19 22/2/23 19/6/20

