# WaveFront *.obj file (generated by CINEMA 4D)

v 0 0 0
v 100 0 0
v 75 0 0
v 50 0 0
v 25 0 0
v 98.48077392578125 0 17.36481857299805
v 73.86058044433594 0 13.02361297607422
v 49.24038696289062 0 8.68240928649902
v 24.62019348144531 0 4.34120464324951
v 93.96926116943359 0 34.2020149230957
v 70.47694396972656 0 25.65151023864746
v 46.9846305847168 0 17.10100746154785
v 23.4923152923584 0 8.55050373077393
v 86.6025390625 0 50
v 64.951904296875 0 37.5
v 43.30126953125 0 25
v 21.650634765625 0 12.5
v 76.60444641113281 0 64.27876281738281
v 57.45333480834961 0 48.20907211303711
v 38.30222320556641 0 32.13938140869141
v 19.1511116027832 0 16.0696907043457
v 64.27876281738281 0 76.60444641113281
v 48.20907211303711 0 57.45333480834961
v 32.13938140869141 0 38.30222320556641
v 16.0696907043457 0 19.1511116027832
v 50 0 86.6025390625
v 37.5 0 64.951904296875
v 25 0 43.30126953125
v 12.5 0 21.650634765625
v 34.2020149230957 0 93.96926116943359
v 25.65151023864746 0 70.47694396972656
v 17.10100746154785 0 46.9846305847168
v 8.55050373077393 0 23.4923152923584
v 17.36481857299805 0 98.48077392578125
v 13.02361297607422 0 73.86058044433594
v 8.68240928649902 0 49.24038696289062
v 4.34120464324951 0 24.62019348144531
v 0.00000000000001 0 100
v 0 0 75
v 0 0 50
v 0 0 25
v -17.36481857299805 0 98.48077392578125
v -13.02361297607422 0 73.86058044433594
v -8.68240928649902 0 49.24038696289062
v -4.34120464324951 0 24.62019348144531
v -34.2020149230957 0 93.96926116943359
v -25.65151023864746 0 70.47694396972656
v -17.10100746154785 0 46.9846305847168
v -8.55050373077393 0 23.4923152923584
v -50 0 86.6025390625
v -37.5 0 64.951904296875
v -25 0 43.30126953125
v -12.5 0 21.650634765625
v -64.27876281738281 0 76.60444641113281
v -48.20907211303711 0 57.45333480834961
v -32.13938140869141 0 38.30222320556641
v -16.0696907043457 0 19.1511116027832
v -76.60444641113281 0 64.27876281738281
v -57.45333480834961 0 48.20907211303711
v -38.30222320556641 0 32.13938140869141
v -19.1511116027832 0 16.0696907043457
v -86.6025390625 0 50
v -64.951904296875 0 37.5
v -43.30126953125 0 25
v -21.650634765625 0 12.5
v -93.96926116943359 0 34.2020149230957
v -70.47694396972656 0 25.65151023864746
v -46.9846305847168 0 17.10100746154785
v -23.4923152923584 0 8.55050373077393
v -98.48077392578125 0 17.36481857299805
v -73.86058044433594 0 13.02361297607422
v -49.24038696289062 0 8.68240928649902
v -24.62019348144531 0 4.34120464324951
v -100 0 0.00000000000001
v -75 0 0.00000000000001
v -50 0 0.00000000000001
v -25 0 0
v -98.48077392578125 0 -17.36481857299805
v -73.86058044433594 0 -13.02361297607422
v -49.24038696289062 0 -8.68240928649902
v -24.62019348144531 0 -4.34120464324951
v -93.96926116943359 0 -34.2020149230957
v -70.47694396972656 0 -25.65151023864746
v -46.9846305847168 0 -17.10100746154785
v -23.4923152923584 0 -8.55050373077393
v -86.6025390625 0 -50
v -64.951904296875 0 -37.5
v -43.30126953125 0 -25
v -21.650634765625 0 -12.5
v -76.60444641113281 0 -64.27876281738281
v -57.45333480834961 0 -48.20907211303711
v -38.30222320556641 0 -32.13938140869141
v -19.1511116027832 0 -16.0696907043457
v -64.27876281738281 0 -76.60444641113281
v -48.20907211303711 0 -57.45333480834961
v -32.13938140869141 0 -38.30222320556641
v -16.0696907043457 0 -19.1511116027832
v -50 0 -86.6025390625
v -37.5 0 -64.951904296875
v -25 0 -43.30126953125
v -12.5 0 -21.650634765625
v -34.2020149230957 0 -93.96926116943359
v -25.65151023864746 0 -70.47694396972656
v -17.10100746154785 0 -46.9846305847168
v -8.55050373077393 0 -23.4923152923584
v -17.36481857299805 0 -98.48077392578125
v -13.02361297607422 0 -73.86058044433594
v -8.68240928649902 0 -49.24038696289062
v -4.34120464324951 0 -24.62019348144531
v -0.00000000000002 0 -100
v -0.00000000000001 0 -75
v -0.00000000000001 0 -50
v -0 0 -25
v 17.36481857299805 0 -98.48077392578125
v 13.02361297607422 0 -73.86058044433594
v 8.68240928649902 0 -49.24038696289062
v 4.34120464324951 0 -24.62019348144531
v 34.2020149230957 0 -93.96926116943359
v 25.65151023864746 0 -70.47694396972656
v 17.10100746154785 0 -46.9846305847168
v 8.55050373077393 0 -23.4923152923584
v 50 0 -86.6025390625
v 37.5 0 -64.951904296875
v 25 0 -43.30126953125
v 12.5 0 -21.650634765625
v 64.27876281738281 0 -76.60444641113281
v 48.20907211303711 0 -57.45333480834961
v 32.13938140869141 0 -38.30222320556641
v 16.0696907043457 0 -19.1511116027832
v 76.60444641113281 0 -64.27876281738281
v 57.45333480834961 0 -48.20907211303711
v 38.30222320556641 0 -32.13938140869141
v 19.1511116027832 0 -16.0696907043457
v 86.6025390625 0 -50
v 64.951904296875 0 -37.5
v 43.30126953125 0 -25
v 21.650634765625 0 -12.5
v 93.96926116943359 0 -34.2020149230957
v 70.47694396972656 0 -25.65151023864746
v 46.9846305847168 0 -17.10100746154785
v 23.4923152923584 0 -8.55050373077393
v 98.48077392578125 0 -17.36481857299805
v 73.86058044433594 0 -13.02361297607422
v 49.24038696289062 0 -8.68240928649902
v 24.62019348144531 0 -4.34120464324951
# 145 vertices

vn 0 1 0
vn 0 0 0
# 2 normals

vt 1 0.5 0
vt 0.875 0.5 0
vt 0.86930292844772 0.56511807441711 0
vt 0.99240386486053 0.58682411909103 0
vt 0.75 0.5 0
vt 0.74620193243027 0.54341202974319 0
vt 0.625 0.5 0
vt 0.62310099601746 0.52170604467392 0
vt 0.5 0.5 0
vt 0.85238474607468 0.62825757265091 0
vt 0.96984630823135 0.67101007699966 0
vt 0.734923183918 0.58550506830215 0
vt 0.61746156215668 0.54275250434875 0
vt 0.82475954294205 0.6875 0
vt 0.93301272392273 0.75 0
vt 0.71650636196136 0.625 0
vt 0.60825318098068 0.5625 0
vt 0.78726667165756 0.74104535579681 0
vt 0.88302224874496 0.82139384746552 0
vt 0.69151109457016 0.66069692373276 0
vt 0.5957555770874 0.5803484916687 0
vt 0.74104535579681 0.78726667165756 0
vt 0.82139378786087 0.88302218914032 0
vt 0.66069692373276 0.6915111541748 0
vt 0.58034843206406 0.5957555770874 0
vt 0.6875 0.82475954294205 0
vt 0.75 0.93301272392273 0
vt 0.625 0.71650636196136 0
vt 0.5625 0.60825318098068 0
vt 0.62825757265091 0.85238474607468 0
vt 0.67101007699966 0.96984630823135 0
vt 0.58550500869751 0.734923183918 0
vt 0.54275250434875 0.61746162176132 0
vt 0.56511807441711 0.86930292844772 0
vt 0.58682405948639 0.99240386486053 0
vt 0.54341202974319 0.74620193243027 0
vt 0.52170604467392 0.62310099601746 0
vt 0.5 0.875 0
vt 0.5 1 0
vt 0.5 0.75 0
vt 0.5 0.625 0
vt 0.43488192558289 0.86930292844772 0
vt 0.41317591071129 0.99240386486053 0
vt 0.45658797025681 0.74620193243027 0
vt 0.4782939851284 0.62310099601746 0
vt 0.37174245715141 0.85238474607468 0
vt 0.32898992300034 0.96984630823135 0
vt 0.41449496150017 0.734923183918 0
vt 0.45724749565125 0.61746162176132 0
vt 0.3125 0.82475954294205 0
vt 0.25 0.93301272392273 0
vt 0.375 0.71650636196136 0
vt 0.4375 0.60825318098068 0
vt 0.25895464420319 0.78726667165756 0
vt 0.17860619723797 0.88302218914032 0
vt 0.33930310606956 0.6915111541748 0
vt 0.41965153813362 0.5957555770874 0
vt 0.21273332834244 0.74104535579681 0
vt 0.11697778105736 0.82139384746552 0
vt 0.30848887562752 0.66069692373276 0
vt 0.40424445271492 0.5803484916687 0
vt 0.17524047195911 0.6875 0
vt 0.06698729842901 0.75 0
vt 0.28349363803864 0.625 0
vt 0.39174681901932 0.5625 0
vt 0.14761526882648 0.62825757265091 0
vt 0.030153689906 0.67101007699966 0
vt 0.26507684588432 0.58550506830215 0
vt 0.382538408041 0.54275250434875 0
vt 0.13069708645344 0.56511807441711 0
vt 0.00759612349793 0.58682411909103 0
vt 0.25379806756973 0.54341202974319 0
vt 0.37689903378487 0.52170604467392 0
vt 0.125 0.5 0
vt 0 0.5 0
vt 0.25 0.5 0
vt 0.375 0.5 0
vt 0.13069708645344 0.43488192558289 0
vt 0.00759612349793 0.41317594051361 0
vt 0.25379806756973 0.45658802986145 0
vt 0.37689903378487 0.47829401493073 0
vt 0.14761526882648 0.37174248695374 0
vt 0.030153689906 0.32898998260498 0
vt 0.26507684588432 0.41449499130249 0
vt 0.382538408041 0.45724749565125 0
vt 0.17524047195911 0.3125 0
vt 0.06698729842901 0.25 0
vt 0.28349363803864 0.375 0
vt 0.39174681901932 0.4375 0
vt 0.21273332834244 0.25895464420319 0
vt 0.11697778105736 0.17860627174377 0
vt 0.30848887562752 0.33930313587189 0
vt 0.40424445271492 0.41965162754059 0
vt 0.25895464420319 0.21273338794708 0
vt 0.17860619723797 0.11697781085968 0
vt 0.33930310606956 0.30848896503448 0
vt 0.41965153813362 0.4042444229126 0
vt 0.3125 0.1752405166626 0
vt 0.25 0.06698727607727 0
vt 0.375 0.28349363803864 0
vt 0.4375 0.39174687862396 0
vt 0.37174245715141 0.14761531352997 0
vt 0.32898992300034 0.03015375137329 0
vt 0.41449496150017 0.26507687568665 0
vt 0.45724749565125 0.38253843784332 0
vt 0.43488192558289 0.13069713115692 0
vt 0.41317591071129 0.00759613513947 0
vt 0.45658797025681 0.25379812717438 0
vt 0.4782939851284 0.37689900398254 0
vt 0.5 0.125 0
vt 0.5 0 0
vt 0.5 0.25 0
vt 0.5 0.375 0
vt 0.56511807441711 0.13069713115692 0
vt 0.58682405948639 0.00759613513947 0
vt 0.54341202974319 0.25379812717438 0
vt 0.52170604467392 0.37689900398254 0
vt 0.62825757265091 0.14761531352997 0
vt 0.67101007699966 0.03015375137329 0
vt 0.58550500869751 0.26507687568665 0
vt 0.54275250434875 0.38253843784332 0
vt 0.6875 0.1752405166626 0
vt 0.75 0.06698727607727 0
vt 0.625 0.28349363803864 0
vt 0.5625 0.39174687862396 0
vt 0.74104535579681 0.21273338794708 0
vt 0.82139378786087 0.11697781085968 0
vt 0.66069692373276 0.30848896503448 0
vt 0.58034843206406 0.4042444229126 0
vt 0.78726667165756 0.25895464420319 0
vt 0.88302224874496 0.17860627174377 0
vt 0.69151109457016 0.33930313587189 0
vt 0.5957555770874 0.41965162754059 0
vt 0.82475954294205 0.3125 0
vt 0.93301272392273 0.25 0
vt 0.71650636196136 0.375 0
vt 0.60825318098068 0.4375 0
vt 0.85238474607468 0.37174248695374 0
vt 0.96984630823135 0.32898998260498 0
vt 0.734923183918 0.41449499130249 0
vt 0.61746156215668 0.45724749565125 0
vt 0.86930292844772 0.43488192558289 0
vt 0.99240386486053 0.41317594051361 0
vt 0.74620193243027 0.45658802986145 0
vt 0.62310099601746 0.47829401493073 0
# 145 texture coordinates

o Disc
usemtl default
f 2/1/1 3/2/1 7/3/1 6/4/1
f 3/2/1 4/5/1 8/6/1 7/3/1
f 4/5/1 5/7/1 9/8/1 8/6/1
f 5/7/1 1/9/1 9/8/1
f 6/4/1 7/3/1 11/10/1 10/11/1
f 7/3/1 8/6/1 12/12/1 11/10/1
f 8/6/1 9/8/1 13/13/1 12/12/1
f 9/8/1 1/9/1 13/13/1
f 10/11/1 11/10/1 15/14/1 14/15/1
f 11/10/1 12/12/1 16/16/1 15/14/1
f 12/12/1 13/13/1 17/17/1 16/16/1
f 13/13/1 1/9/1 17/17/1
f 14/15/1 15/14/1 19/18/1 18/19/1
f 15/14/1 16/16/1 20/20/1 19/18/1
f 16/16/1 17/17/1 21/21/1 20/20/1
f 17/17/1 1/9/1 21/21/1
f 18/19/1 19/18/1 23/22/1 22/23/1
f 19/18/1 20/20/1 24/24/1 23/22/1
f 20/20/1 21/21/1 25/25/1 24/24/1
f 21/21/1 1/9/1 25/25/1
f 22/23/1 23/22/1 27/26/1 26/27/1
f 23/22/1 24/24/1 28/28/1 27/26/1
f 24/24/1 25/25/1 29/29/1 28/28/1
f 25/25/1 1/9/1 29/29/1
f 26/27/1 27/26/1 31/30/1 30/31/1
f 27/26/1 28/28/1 32/32/1 31/30/1
f 28/28/1 29/29/1 33/33/1 32/32/1
f 29/29/1 1/9/1 33/33/1
f 30/31/1 31/30/1 35/34/1 34/35/1
f 31/30/1 32/32/1 36/36/1 35/34/1
f 32/32/1 33/33/1 37/37/1 36/36/1
f 33/33/1 1/9/1 37/37/1
f 34/35/1 35/34/1 39/38/1 38/39/1
f 35/34/1 36/36/1 40/40/1 39/38/1
f 36/36/1 37/37/1 41/41/1 40/40/1
f 37/37/1 1/9/1 41/41/1
f 38/39/1 39/38/1 43/42/1 42/43/1
f 39/38/1 40/40/1 44/44/1 43/42/1
f 40/40/1 41/41/1 45/45/1 44/44/1
f 41/41/1 1/9/1 45/45/1
f 42/43/1 43/42/1 47/46/1 46/47/1
f 43/42/1 44/44/1 48/48/1 47/46/1
f 44/44/1 45/45/1 49/49/1 48/48/1
f 45/45/1 1/9/1 49/49/1
f 46/47/1 47/46/1 51/50/1 50/51/1
f 47/46/1 48/48/1 52/52/1 51/50/1
f 48/48/1 49/49/1 53/53/1 52/52/1
f 49/49/1 1/9/1 53/53/1
f 50/51/1 51/50/1 55/54/1 54/55/1
f 51/50/1 52/52/1 56/56/1 55/54/1
f 52/52/1 53/53/1 57/57/1 56/56/1
f 53/53/1 1/9/1 57/57/1
f 54/55/1 55/54/1 59/58/1 58/59/1
f 55/54/1 56/56/1 60/60/1 59/58/1
f 56/56/1 57/57/1 61/61/1 60/60/1
f 57/57/1 1/9/1 61/61/1
f 58/59/1 59/58/1 63/62/1 62/63/1
f 59/58/1 60/60/1 64/64/1 63/62/1
f 60/60/1 61/61/1 65/65/1 64/64/1
f 61/61/1 1/9/1 65/65/1
f 62/63/1 63/62/1 67/66/1 66/67/1
f 63/62/1 64/64/1 68/68/1 67/66/1
f 64/64/1 65/65/1 69/69/1 68/68/1
f 65/65/1 1/9/1 69/69/1
f 66/67/1 67/66/1 71/70/1 70/71/1
f 67/66/1 68/68/1 72/72/1 71/70/1
f 68/68/1 69/69/1 73/73/1 72/72/1
f 69/69/1 1/9/1 73/73/1
f 70/71/1 71/70/1 75/74/1 74/75/1
f 71/70/1 72/72/1 76/76/1 75/74/1
f 72/72/1 73/73/1 77/77/1 76/76/1
f 73/73/1 1/9/1 77/77/1
f 74/75/1 75/74/1 79/78/1 78/79/1
f 75/74/1 76/76/1 80/80/1 79/78/1
f 76/76/1 77/77/1 81/81/1 80/80/1
f 77/77/1 1/9/1 81/81/1
f 78/79/1 79/78/1 83/82/1 82/83/1
f 79/78/1 80/80/1 84/84/1 83/82/1
f 80/80/1 81/81/1 85/85/1 84/84/1
f 81/81/1 1/9/1 85/85/1
f 82/83/1 83/82/1 87/86/1 86/87/1
f 83/82/1 84/84/1 88/88/1 87/86/1
f 84/84/1 85/85/1 89/89/1 88/88/1
f 85/85/1 1/9/1 89/89/1
f 86/87/1 87/86/1 91/90/1 90/91/1
f 87/86/1 88/88/1 92/92/1 91/90/1
f 88/88/1 89/89/1 93/93/1 92/92/1
f 89/89/1 1/9/1 93/93/1
f 90/91/1 91/90/1 95/94/1 94/95/1
f 91/90/1 92/92/1 96/96/1 95/94/1
f 92/92/1 93/93/1 97/97/1 96/96/1
f 93/93/1 1/9/1 97/97/1
f 94/95/1 95/94/1 99/98/1 98/99/1
f 95/94/1 96/96/1 100/100/1 99/98/1
f 96/96/1 97/97/1 101/101/1 100/100/1
f 97/97/1 1/9/1 101/101/1
f 98/99/1 99/98/1 103/102/1 102/103/1
f 99/98/1 100/100/1 104/104/1 103/102/1
f 100/100/1 101/101/1 105/105/1 104/104/1
f 101/101/1 1/9/1 105/105/1
f 102/103/1 103/102/1 107/106/1 106/107/1
f 103/102/1 104/104/1 108/108/1 107/106/1
f 104/104/1 105/105/1 109/109/1 108/108/1
f 105/105/1 1/9/1 109/109/1
f 106/107/1 107/106/1 111/110/1 110/111/1
f 107/106/1 108/108/1 112/112/1 111/110/1
f 108/108/1 109/109/1 113/113/1 112/112/1
f 109/109/1 1/9/1 113/113/1
f 110/111/1 111/110/1 115/114/1 114/115/1
f 111/110/1 112/112/1 116/116/1 115/114/1
f 112/112/1 113/113/1 117/117/1 116/116/1
f 113/113/1 1/9/1 117/117/1
f 114/115/1 115/114/1 119/118/1 118/119/1
f 115/114/1 116/116/1 120/120/1 119/118/1
f 116/116/1 117/117/1 121/121/1 120/120/1
f 117/117/1 1/9/1 121/121/1
f 118/119/1 119/118/1 123/122/1 122/123/1
f 119/118/1 120/120/1 124/124/1 123/122/1
f 120/120/1 121/121/1 125/125/1 124/124/1
f 121/121/1 1/9/1 125/125/1
f 122/123/1 123/122/1 127/126/1 126/127/1
f 123/122/1 124/124/1 128/128/1 127/126/1
f 124/124/1 125/125/1 129/129/1 128/128/1
f 125/125/1 1/9/1 129/129/1
f 126/127/1 127/126/1 131/130/1 130/131/1
f 127/126/1 128/128/1 132/132/1 131/130/1
f 128/128/1 129/129/1 133/133/1 132/132/1
f 129/129/1 1/9/1 133/133/1
f 130/131/1 131/130/1 135/134/1 134/135/1
f 131/130/1 132/132/1 136/136/1 135/134/1
f 132/132/1 133/133/1 137/137/1 136/136/1
f 133/133/1 1/9/1 137/137/1
f 134/135/1 135/134/1 139/138/1 138/139/1
f 135/134/1 136/136/1 140/140/1 139/138/1
f 136/136/1 137/137/1 141/141/1 140/140/1
f 137/137/1 1/9/1 141/141/1
f 138/139/1 139/138/1 143/142/1 142/143/1
f 139/138/1 140/140/1 144/144/1 143/142/1
f 140/140/1 141/141/1 145/145/1 144/144/1
f 141/141/1 1/9/1 145/145/1
f 142/143/1 143/142/1 3/2/1 2/1/1
f 143/142/1 144/144/1 4/5/1 3/2/1
f 144/144/1 145/145/1 5/7/1 4/5/1
f 145/145/1 1/9/1 5/7/1

